<svg width="209" height="69" viewBox="0 0 209 69" fill="none" xmlns="http://www.w3.org/2000/svg">
<path d="M10.8 14.36L19.92 36.68L28.992 14.36H35.28V47H29.76V34.52L30.48 23.096L22.368 43.16H17.232L9.312 23.048L10.032 34.52V47H4.512V14.36H10.8ZM61.6849 47L59.6689 40.616H48.4849L46.4689 47H40.7569L51.6529 14.36H56.7409L67.6849 47H61.6849ZM51.6049 30.632L50.1169 35.336H57.9889L56.5009 30.632L54.1009 22.376L51.6049 30.632ZM80.001 42.392C81.281 42.392 82.337 42.088 83.169 41.48C84.001 40.872 84.513 40.056 84.705 39.032C84.897 37.976 84.657 36.808 83.985 35.528L88.401 32.84L95.697 47H89.697L87.585 42.248C87.137 43.784 86.209 45.048 84.801 46.04C83.425 47 81.649 47.48 79.473 47.48C76.625 47.48 74.385 46.68 72.753 45.08C71.153 43.48 70.353 41.416 70.353 38.888C70.353 37.096 70.817 35.416 71.745 33.848C72.705 32.28 74.321 30.76 76.593 29.288C75.025 28.072 73.889 26.856 73.185 25.64C72.481 24.392 72.129 23.064 72.129 21.656C72.129 20.216 72.465 18.904 73.137 17.72C73.809 16.536 74.785 15.608 76.065 14.936C77.377 14.232 78.977 13.88 80.865 13.88C83.585 13.88 85.745 14.584 87.345 15.992C88.945 17.4 89.745 19.352 89.745 21.848C89.745 23.352 89.441 24.648 88.833 25.736C88.257 26.824 87.457 27.816 86.433 28.712C85.409 29.576 84.209 30.44 82.833 31.304L79.473 33.464C78.033 34.392 77.089 35.288 76.641 36.152C76.193 37.016 75.969 37.848 75.969 38.648C75.969 39.928 76.337 40.872 77.073 41.48C77.841 42.088 78.817 42.392 80.001 42.392ZM77.457 21.944C77.457 22.648 77.649 23.432 78.033 24.296C78.449 25.16 79.153 26.04 80.145 26.936C81.265 26.2 82.113 25.592 82.689 25.112C83.265 24.6 83.665 24.12 83.889 23.672C84.113 23.224 84.225 22.728 84.225 22.184C84.225 21.032 83.905 20.2 83.265 19.688C82.625 19.144 81.841 18.872 80.913 18.872C79.953 18.872 79.137 19.128 78.465 19.64C77.793 20.152 77.457 20.92 77.457 21.944ZM107.147 42.152C110.859 42.152 112.715 40.776 112.715 38.024C112.715 36.904 112.427 36.024 111.851 35.384C111.307 34.744 110.283 34.184 108.779 33.704L104.843 32.408C100.139 30.872 97.7873 27.784 97.7873 23.144C97.7873 20.456 98.6193 18.248 100.283 16.52C101.979 14.76 104.619 13.88 108.203 13.88C109.707 13.88 111.195 14.056 112.667 14.408C114.139 14.728 115.707 15.256 117.371 15.992L115.595 20.936C114.059 20.328 112.747 19.896 111.659 19.64C110.603 19.352 109.515 19.208 108.395 19.208C106.923 19.208 105.755 19.48 104.891 20.024C104.059 20.536 103.643 21.48 103.643 22.856C103.643 23.88 103.931 24.728 104.507 25.4C105.115 26.04 106.107 26.584 107.483 27.032L111.419 28.328C113.787 29.128 115.563 30.296 116.747 31.832C117.963 33.336 118.571 35.336 118.571 37.832C118.571 40.712 117.659 43.048 115.835 44.84C114.011 46.6 111.147 47.48 107.243 47.48C105.707 47.48 104.107 47.304 102.443 46.952C100.811 46.568 99.0193 45.928 97.0673 45.032L98.8433 40.088C100.635 40.856 102.155 41.4 103.403 41.72C104.683 42.008 105.931 42.152 107.147 42.152ZM147.975 27.224V34.088C147.975 38.248 146.935 41.528 144.855 43.928C142.775 46.296 139.735 47.48 135.735 47.48C131.703 47.48 128.647 46.296 126.567 43.928C124.519 41.528 123.495 38.248 123.495 34.088V27.224C123.495 23.064 124.519 19.8 126.567 17.432C128.647 15.064 131.703 13.88 135.735 13.88C139.735 13.88 142.775 15.064 144.855 17.432C146.935 19.8 147.975 23.064 147.975 27.224ZM142.071 27.224C142.071 24.6 141.559 22.632 140.535 21.32C139.511 19.976 137.911 19.304 135.735 19.304C133.559 19.304 131.959 19.976 130.935 21.32C129.911 22.632 129.399 24.6 129.399 27.224V34.088C129.399 36.712 129.911 38.696 130.935 40.04C131.959 41.384 133.559 42.056 135.735 42.056C137.911 42.056 139.511 41.384 140.535 40.04C141.559 38.696 142.071 36.712 142.071 34.088V27.224ZM155.59 47V14.36H160.87C163.398 17.656 165.798 21.144 168.07 24.824C170.342 28.472 172.406 32.232 174.262 36.104L173.83 26.36V14.36H179.35V47H174.07C172.022 42.968 169.894 38.92 167.686 34.856C165.51 30.76 163.19 26.904 160.726 23.288L161.11 34.52V47H155.59ZM195.46 42.152C199.172 42.152 201.028 40.776 201.028 38.024C201.028 36.904 200.74 36.024 200.164 35.384C199.62 34.744 198.596 34.184 197.092 33.704L193.156 32.408C188.452 30.872 186.1 27.784 186.1 23.144C186.1 20.456 186.932 18.248 188.596 16.52C190.292 14.76 192.932 13.88 196.516 13.88C198.02 13.88 199.508 14.056 200.98 14.408C202.452 14.728 204.02 15.256 205.684 15.992L203.908 20.936C202.372 20.328 201.06 19.896 199.972 19.64C198.916 19.352 197.828 19.208 196.708 19.208C195.236 19.208 194.068 19.48 193.204 20.024C192.372 20.536 191.956 21.48 191.956 22.856C191.956 23.88 192.244 24.728 192.82 25.4C193.428 26.04 194.42 26.584 195.796 27.032L199.732 28.328C202.1 29.128 203.876 30.296 205.06 31.832C206.276 33.336 206.884 35.336 206.884 37.832C206.884 40.712 205.972 43.048 204.148 44.84C202.324 46.6 199.46 47.48 195.556 47.48C194.02 47.48 192.42 47.304 190.756 46.952C189.124 46.568 187.332 45.928 185.38 45.032L187.156 40.088C188.948 40.856 190.468 41.4 191.716 41.72C192.996 42.008 194.244 42.152 195.46 42.152Z" fill="white"/>
<path d="M7.604 59.512L8.276 63.362L10.474 55.48H11.608L13.806 63.32L14.506 59.512L15.332 55.48H16.536L14.436 65H13.204L11.02 57.216L8.836 65H7.59L5.504 55.48H6.778L7.604 59.512ZM23.1662 64.594C22.7462 64.7993 22.3262 64.9393 21.9062 65.014C21.4862 65.098 21.0989 65.14 20.7442 65.14C19.7455 65.14 18.9989 64.8553 18.5042 64.286C18.0189 63.7167 17.7762 62.9373 17.7762 61.948V61.108C17.7762 60.1467 18.0189 59.3767 18.5042 58.798C18.9989 58.2193 19.6942 57.93 20.5902 57.93C21.0662 57.93 21.5002 58.028 21.8922 58.224C22.2935 58.4107 22.6109 58.7 22.8442 59.092C23.0869 59.4747 23.2082 59.9693 23.2082 60.576C23.2082 60.968 23.1522 61.416 23.0402 61.92H18.9102V61.948C18.9102 62.6573 19.0549 63.194 19.3442 63.558C19.6429 63.922 20.1189 64.104 20.7722 64.104C21.0709 64.104 21.3975 64.0667 21.7522 63.992C22.1162 63.9173 22.4709 63.8007 22.8162 63.642L23.1662 64.594ZM20.5902 58.938C20.0489 58.938 19.6382 59.1153 19.3582 59.47C19.0875 59.8153 18.9382 60.3053 18.9102 60.94H22.0462C22.0742 60.772 22.0882 60.6133 22.0882 60.464C22.0882 59.9413 21.9389 59.5587 21.6402 59.316C21.3509 59.064 21.0009 58.938 20.5902 58.938ZM30.2629 65.07C29.8336 65.07 29.4882 64.972 29.2269 64.776C28.9749 64.58 28.7976 64.3373 28.6949 64.048C28.2376 64.4493 27.8222 64.734 27.4489 64.902C27.0756 65.0607 26.7022 65.14 26.3289 65.14C25.7222 65.14 25.2742 64.944 24.9849 64.552C24.6956 64.16 24.5509 63.6793 24.5509 63.11C24.5509 62.7273 24.6209 62.3867 24.7609 62.088C24.9009 61.7893 25.1389 61.556 25.4749 61.388C25.8109 61.2107 26.2636 61.122 26.8329 61.122C27.0849 61.122 27.3602 61.1407 27.6589 61.178C27.9576 61.206 28.2609 61.2433 28.5689 61.29V60.352C28.5689 59.8293 28.4522 59.4747 28.2189 59.288C27.9949 59.092 27.6636 58.994 27.2249 58.994C26.6276 58.994 25.9602 59.1573 25.2229 59.484L24.8589 58.532C25.2882 58.336 25.6989 58.1867 26.0909 58.084C26.4829 57.9813 26.8796 57.93 27.2809 57.93C27.9342 57.93 28.4336 58.0373 28.7789 58.252C29.1242 58.4667 29.3622 58.7513 29.4929 59.106C29.6236 59.4607 29.6889 59.848 29.6889 60.268V63.264C29.6889 63.4787 29.7309 63.6607 29.8149 63.81C29.8989 63.95 30.0669 64.02 30.3189 64.02H30.4729V65.07H30.2629ZM25.6849 63.096C25.6849 63.4133 25.7596 63.67 25.9089 63.866C26.0582 64.062 26.2729 64.16 26.5529 64.16C26.7956 64.16 27.0756 64.09 27.3929 63.95C27.7102 63.8007 28.1022 63.5067 28.5689 63.068V62.186C27.9342 62.0833 27.3742 62.032 26.8889 62.032C26.4596 62.032 26.1516 62.1207 25.9649 62.298C25.7782 62.4753 25.6849 62.7413 25.6849 63.096ZM37.0031 58.07L34.5531 65H33.4751L30.9971 58.07H32.1871L33.3491 61.444L34.0491 63.558L34.7351 61.444L35.8691 58.07H37.0031ZM39.7566 56.376H38.4686V55.088H39.7566V56.376ZM39.6866 65H38.5386V58.07H39.6866V65ZM45.4937 59.008C45.2324 59.008 44.9244 59.0733 44.5697 59.204C44.2244 59.3347 43.8044 59.6007 43.3097 60.002V65H42.1617V58.07H43.2537V59.036C43.7484 58.616 44.1964 58.3267 44.5977 58.168C45.0084 58.0093 45.4004 57.93 45.7737 57.93C46.4177 57.93 46.9077 58.1353 47.2437 58.546C47.589 58.9473 47.7617 59.5213 47.7617 60.268V65H46.6137V60.436C46.6137 59.484 46.2404 59.008 45.4937 59.008ZM55.7037 65.868C55.7037 66.5493 55.4237 67.0953 54.8637 67.506C54.3131 67.9167 53.5524 68.122 52.5817 68.122C52.0964 68.122 51.5877 68.0567 51.0557 67.926C50.5331 67.7953 50.0384 67.5853 49.5717 67.296L49.9637 66.4C50.4304 66.6613 50.8784 66.8433 51.3077 66.946C51.7464 67.058 52.1711 67.114 52.5817 67.114C53.2164 67.114 53.7064 67.0113 54.0517 66.806C54.3971 66.6007 54.5697 66.3253 54.5697 65.98C54.5697 65.728 54.4857 65.532 54.3177 65.392C54.1497 65.2613 53.8791 65.196 53.5057 65.196H51.8957C51.2891 65.196 50.8504 65.0513 50.5797 64.762C50.3091 64.4727 50.1737 64.1553 50.1737 63.81C50.1737 63.5673 50.2297 63.3293 50.3417 63.096C50.4537 62.8533 50.6124 62.6153 50.8177 62.382C50.4911 62.186 50.2297 61.92 50.0337 61.584C49.8377 61.2387 49.7397 60.8233 49.7397 60.338C49.7397 59.806 49.8517 59.3627 50.0757 59.008C50.3091 58.6533 50.6171 58.3873 50.9997 58.21C51.3824 58.0233 51.8117 57.93 52.2877 57.93H52.5257C52.8524 57.93 53.1511 57.9767 53.4217 58.07H55.9137V59.092L54.4017 58.882C54.5977 59.05 54.7564 59.26 54.8777 59.512C54.9991 59.7547 55.0597 60.0533 55.0597 60.408C55.0597 60.912 54.9431 61.3367 54.7097 61.682C54.4857 62.0273 54.1824 62.2933 53.7997 62.48C53.4171 62.6573 52.9924 62.746 52.5257 62.746H52.2877C52.1664 62.746 52.0497 62.7413 51.9377 62.732C51.8257 62.7133 51.7137 62.6947 51.6017 62.676C51.3311 62.9747 51.1957 63.2687 51.1957 63.558C51.1957 63.9313 51.4571 64.118 51.9797 64.118H53.5477C54.2197 64.118 54.7471 64.2673 55.1297 64.566C55.5124 64.8647 55.7037 65.2987 55.7037 65.868ZM52.5257 61.752C52.8897 61.752 53.2117 61.6353 53.4917 61.402C53.7717 61.1687 53.9117 60.814 53.9117 60.338C53.9117 59.8713 53.7717 59.5213 53.4917 59.288C53.2117 59.0453 52.8897 58.924 52.5257 58.924H52.2877C51.9144 58.924 51.5877 59.0453 51.3077 59.288C51.0277 59.5213 50.8877 59.8713 50.8877 60.338C50.8877 60.814 51.0277 61.1687 51.3077 61.402C51.5877 61.6353 51.9144 61.752 52.2877 61.752H52.5257ZM60.734 65V55.48H63.534C64.4487 55.48 65.1207 55.704 65.55 56.152C65.9887 56.5907 66.208 57.1833 66.208 57.93V58.238C66.208 58.6487 66.1147 59.0127 65.928 59.33C65.7413 59.6473 65.4707 59.8993 65.116 60.086C65.6107 60.2447 65.984 60.506 66.236 60.87C66.4973 61.2247 66.628 61.654 66.628 62.158V62.466C66.628 63.2313 66.404 63.8473 65.956 64.314C65.5173 64.7713 64.8267 65 63.884 65H60.734ZM63.534 56.6H61.952V59.61H63.534C64.0007 59.61 64.3507 59.4933 64.584 59.26C64.8267 59.0173 64.948 58.686 64.948 58.266V57.93C64.948 57.5193 64.8267 57.1973 64.584 56.964C64.3507 56.7213 64.0007 56.6 63.534 56.6ZM63.884 60.73H61.952V63.894H63.884C64.3787 63.894 64.7473 63.768 64.99 63.516C65.242 63.264 65.368 62.914 65.368 62.466V62.13C65.368 61.7007 65.242 61.36 64.99 61.108C64.7473 60.856 64.3787 60.73 63.884 60.73ZM73.6975 64.594C73.2775 64.7993 72.8575 64.9393 72.4375 65.014C72.0175 65.098 71.6301 65.14 71.2755 65.14C70.2768 65.14 69.5301 64.8553 69.0355 64.286C68.5501 63.7167 68.3075 62.9373 68.3075 61.948V61.108C68.3075 60.1467 68.5501 59.3767 69.0355 58.798C69.5301 58.2193 70.2255 57.93 71.1215 57.93C71.5975 57.93 72.0315 58.028 72.4235 58.224C72.8248 58.4107 73.1421 58.7 73.3755 59.092C73.6181 59.4747 73.7395 59.9693 73.7395 60.576C73.7395 60.968 73.6835 61.416 73.5715 61.92H69.4415V61.948C69.4415 62.6573 69.5861 63.194 69.8755 63.558C70.1741 63.922 70.6501 64.104 71.3035 64.104C71.6021 64.104 71.9288 64.0667 72.2835 63.992C72.6475 63.9173 73.0021 63.8007 73.3475 63.642L73.6975 64.594ZM71.1215 58.938C70.5801 58.938 70.1695 59.1153 69.8895 59.47C69.6188 59.8153 69.4695 60.3053 69.4415 60.94H72.5775C72.6055 60.772 72.6195 60.6133 72.6195 60.464C72.6195 59.9413 72.4701 59.5587 72.1715 59.316C71.8821 59.064 71.5321 58.938 71.1215 58.938ZM80.7941 65.07C80.3648 65.07 80.0195 64.972 79.7581 64.776C79.5061 64.58 79.3288 64.3373 79.2261 64.048C78.7688 64.4493 78.3535 64.734 77.9801 64.902C77.6068 65.0607 77.2335 65.14 76.8601 65.14C76.2535 65.14 75.8055 64.944 75.5161 64.552C75.2268 64.16 75.0821 63.6793 75.0821 63.11C75.0821 62.7273 75.1521 62.3867 75.2921 62.088C75.4321 61.7893 75.6701 61.556 76.0061 61.388C76.3421 61.2107 76.7948 61.122 77.3641 61.122C77.6161 61.122 77.8915 61.1407 78.1901 61.178C78.4888 61.206 78.7921 61.2433 79.1001 61.29V60.352C79.1001 59.8293 78.9835 59.4747 78.7501 59.288C78.5261 59.092 78.1948 58.994 77.7561 58.994C77.1588 58.994 76.4915 59.1573 75.7541 59.484L75.3901 58.532C75.8195 58.336 76.2301 58.1867 76.6221 58.084C77.0141 57.9813 77.4108 57.93 77.8121 57.93C78.4655 57.93 78.9648 58.0373 79.3101 58.252C79.6555 58.4667 79.8935 58.7513 80.0241 59.106C80.1548 59.4607 80.2201 59.848 80.2201 60.268V63.264C80.2201 63.4787 80.2621 63.6607 80.3461 63.81C80.4301 63.95 80.5981 64.02 80.8501 64.02H81.0041V65.07H80.7941ZM76.2161 63.096C76.2161 63.4133 76.2908 63.67 76.4401 63.866C76.5895 64.062 76.8041 64.16 77.0841 64.16C77.3268 64.16 77.6068 64.09 77.9241 63.95C78.2415 63.8007 78.6335 63.5067 79.1001 63.068V62.186C78.4655 62.0833 77.9055 62.032 77.4201 62.032C76.9908 62.032 76.6828 62.1207 76.4961 62.298C76.3095 62.4753 76.2161 62.7413 76.2161 63.096ZM86.9004 65V64.02C86.4151 64.44 85.9811 64.734 85.5984 64.902C85.2158 65.0607 84.8331 65.14 84.4504 65.14C83.8344 65.14 83.3631 64.9393 83.0364 64.538C82.7098 64.1273 82.5464 63.5533 82.5464 62.816V58.07H83.6944V62.648C83.6944 63.1333 83.7784 63.4927 83.9464 63.726C84.1238 63.95 84.3851 64.062 84.7304 64.062C84.9918 64.062 85.2858 63.9967 85.6124 63.866C85.9391 63.7353 86.3451 63.474 86.8304 63.082V58.07H87.9784V65H86.9004ZM94.2588 64.748C93.7361 65.0093 93.1808 65.14 92.5928 65.14C92.0888 65.14 91.6921 65.0373 91.4028 64.832C91.1228 64.6267 90.9221 64.3513 90.8008 64.006C90.6888 63.6607 90.6328 63.278 90.6328 62.858V59.078H89.4288V58.07H90.6328V56.138H91.7808V58.07H94.0488V59.078H91.7808V62.816C91.7808 63.3013 91.8601 63.6373 92.0188 63.824C92.1868 64.0013 92.4434 64.09 92.7888 64.09C92.9568 64.09 93.1294 64.0713 93.3068 64.034C93.4934 63.9873 93.6941 63.9127 93.9088 63.81L94.2588 64.748ZM98.1351 65.7C97.8364 66.54 97.4678 67.1513 97.0291 67.534C96.5998 67.926 95.9978 68.122 95.2231 68.122V66.988C95.5404 66.9787 95.8111 66.9367 96.0351 66.862C96.2684 66.7873 96.4738 66.6333 96.6511 66.4C96.8378 66.176 97.0151 65.84 97.1831 65.392L97.3231 65.042L94.8311 58.07H96.0071L97.1691 61.444L97.8831 63.6L98.5691 61.444L99.7031 58.07H100.837L98.1351 65.7ZM106.891 65H105.673V55.48H106.891V65ZM112.951 59.008C112.689 59.008 112.381 59.0733 112.027 59.204C111.681 59.3347 111.261 59.6007 110.767 60.002V65H109.619V58.07H110.711V59.036C111.205 58.616 111.653 58.3267 112.055 58.168C112.465 58.0093 112.857 57.93 113.231 57.93C113.875 57.93 114.365 58.1353 114.701 58.546C115.046 58.9473 115.219 59.5213 115.219 60.268V65H114.071V60.436C114.071 59.484 113.697 59.008 112.951 59.008ZM121.425 64.748C120.902 65.0093 120.347 65.14 119.759 65.14C119.255 65.14 118.858 65.0373 118.569 64.832C118.289 64.6267 118.088 64.3513 117.967 64.006C117.855 63.6607 117.799 63.278 117.799 62.858V59.078H116.595V58.07H117.799V56.138H118.947V58.07H121.215V59.078H118.947V62.816C118.947 63.3013 119.026 63.6373 119.185 63.824C119.353 64.0013 119.609 64.09 119.955 64.09C120.123 64.09 120.295 64.0713 120.473 64.034C120.659 63.9873 120.86 63.9127 121.075 63.81L121.425 64.748ZM128.423 61.108V61.948C128.423 62.9373 128.166 63.7167 127.653 64.286C127.149 64.8553 126.426 65.14 125.483 65.14C124.55 65.14 123.826 64.8553 123.313 64.286C122.8 63.7167 122.543 62.9373 122.543 61.948V61.108C122.543 60.1373 122.795 59.3673 123.299 58.798C123.812 58.2193 124.54 57.93 125.483 57.93C126.426 57.93 127.149 58.2193 127.653 58.798C128.166 59.3673 128.423 60.1373 128.423 61.108ZM127.233 61.108C127.233 60.4453 127.084 59.9273 126.785 59.554C126.486 59.1713 126.052 58.98 125.483 58.98C124.923 58.98 124.489 59.1713 124.181 59.554C123.882 59.9273 123.733 60.4453 123.733 61.108V61.948C123.733 62.6387 123.882 63.1707 124.181 63.544C124.489 63.9173 124.923 64.104 125.483 64.104C126.052 64.104 126.486 63.9173 126.785 63.544C127.084 63.1707 127.233 62.6387 127.233 61.948V61.108ZM139.13 63.866V65H133.81V55.48H138.99V56.628H135.028V59.61H138.57V60.758H135.028V63.866H139.13ZM145.982 58.07L143.532 65H142.454L139.976 58.07H141.166L142.328 61.444L143.028 63.558L143.714 61.444L144.848 58.07H145.982ZM152.406 64.594C151.986 64.7993 151.566 64.9393 151.146 65.014C150.726 65.098 150.339 65.14 149.984 65.14C148.986 65.14 148.239 64.8553 147.744 64.286C147.259 63.7167 147.016 62.9373 147.016 61.948V61.108C147.016 60.1467 147.259 59.3767 147.744 58.798C148.239 58.2193 148.934 57.93 149.83 57.93C150.306 57.93 150.74 58.028 151.132 58.224C151.534 58.4107 151.851 58.7 152.084 59.092C152.327 59.4747 152.448 59.9693 152.448 60.576C152.448 60.968 152.392 61.416 152.28 61.92H148.15V61.948C148.15 62.6573 148.295 63.194 148.584 63.558C148.883 63.922 149.359 64.104 150.012 64.104C150.311 64.104 150.638 64.0667 150.992 63.992C151.356 63.9173 151.711 63.8007 152.056 63.642L152.406 64.594ZM149.83 58.938C149.289 58.938 148.878 59.1153 148.598 59.47C148.328 59.8153 148.178 60.3053 148.15 60.94H151.286C151.314 60.772 151.328 60.6133 151.328 60.464C151.328 59.9413 151.179 59.5587 150.88 59.316C150.591 59.064 150.241 58.938 149.83 58.938ZM158.075 59.078C157.655 59.078 157.244 59.1527 156.843 59.302C156.451 59.4513 156.031 59.736 155.583 60.156V65H154.435V58.07H155.527V59.19C156.003 58.7233 156.437 58.3967 156.829 58.21C157.23 58.0233 157.646 57.93 158.075 57.93V59.078ZM161.942 65.7C161.643 66.54 161.274 67.1513 160.836 67.534C160.406 67.926 159.804 68.122 159.03 68.122V66.988C159.347 66.9787 159.618 66.9367 159.842 66.862C160.075 66.7873 160.28 66.6333 160.458 66.4C160.644 66.176 160.822 65.84 160.99 65.392L161.13 65.042L158.638 58.07H159.814L160.976 61.444L161.69 63.6L162.376 61.444L163.51 58.07H164.644L161.942 65.7ZM171.426 64.048C172.014 64.048 172.467 63.922 172.784 63.67C173.101 63.4087 173.26 63.0307 173.26 62.536C173.26 62.1253 173.148 61.78 172.924 61.5C172.709 61.22 172.355 61.0053 171.86 60.856L170.726 60.52C170.017 60.3053 169.494 59.9833 169.158 59.554C168.822 59.1153 168.654 58.5787 168.654 57.944C168.654 57.4587 168.747 57.02 168.934 56.628C169.13 56.236 169.438 55.9233 169.858 55.69C170.287 55.4567 170.847 55.34 171.538 55.34C171.958 55.34 172.392 55.3913 172.84 55.494C173.288 55.5873 173.741 55.7413 174.198 55.956L173.806 57.006C173.358 56.81 172.952 56.67 172.588 56.586C172.233 56.4927 171.893 56.446 171.566 56.446C171.034 56.446 170.619 56.558 170.32 56.782C170.031 56.9967 169.886 57.356 169.886 57.86C169.886 58.224 169.984 58.532 170.18 58.784C170.376 59.0267 170.726 59.2273 171.23 59.386L172.364 59.722C173.783 60.142 174.492 61.0473 174.492 62.438C174.492 63.2407 174.249 63.894 173.764 64.398C173.279 64.8927 172.499 65.14 171.426 65.14C170.987 65.14 170.521 65.0887 170.026 64.986C169.541 64.874 169.037 64.7013 168.514 64.468L168.892 63.432C169.387 63.656 169.83 63.8147 170.222 63.908C170.623 64.0013 171.025 64.048 171.426 64.048ZM179.082 65.14C178.559 65.14 178.018 65.0327 177.458 64.818V67.982H176.31V58.07H177.402V59.05C177.831 58.6393 178.223 58.35 178.578 58.182C178.933 58.014 179.297 57.93 179.67 57.93C180.407 57.93 180.972 58.21 181.364 58.77C181.765 59.33 181.966 60.1187 181.966 61.136V61.948C181.966 62.9187 181.719 63.6933 181.224 64.272C180.739 64.8507 180.025 65.14 179.082 65.14ZM179.39 59.008C179.119 59.008 178.839 59.078 178.55 59.218C178.261 59.358 177.897 59.6427 177.458 60.072V63.768C177.729 63.8893 177.99 63.978 178.242 64.034C178.494 64.0807 178.741 64.104 178.984 64.104C179.619 64.104 180.076 63.9127 180.356 63.53C180.636 63.138 180.776 62.6107 180.776 61.948V61.136C180.776 60.408 180.659 59.8713 180.426 59.526C180.202 59.1807 179.857 59.008 179.39 59.008ZM189.157 65.07C188.728 65.07 188.383 64.972 188.121 64.776C187.869 64.58 187.692 64.3373 187.589 64.048C187.132 64.4493 186.717 64.734 186.343 64.902C185.97 65.0607 185.597 65.14 185.223 65.14C184.617 65.14 184.169 64.944 183.879 64.552C183.59 64.16 183.445 63.6793 183.445 63.11C183.445 62.7273 183.515 62.3867 183.655 62.088C183.795 61.7893 184.033 61.556 184.369 61.388C184.705 61.2107 185.158 61.122 185.727 61.122C185.979 61.122 186.255 61.1407 186.553 61.178C186.852 61.206 187.155 61.2433 187.463 61.29V60.352C187.463 59.8293 187.347 59.4747 187.113 59.288C186.889 59.092 186.558 58.994 186.119 58.994C185.522 58.994 184.855 59.1573 184.117 59.484L183.753 58.532C184.183 58.336 184.593 58.1867 184.985 58.084C185.377 57.9813 185.774 57.93 186.175 57.93C186.829 57.93 187.328 58.0373 187.673 58.252C188.019 58.4667 188.257 58.7513 188.387 59.106C188.518 59.4607 188.583 59.848 188.583 60.268V63.264C188.583 63.4787 188.625 63.6607 188.709 63.81C188.793 63.95 188.961 64.02 189.213 64.02H189.367V65.07H189.157ZM184.579 63.096C184.579 63.4133 184.654 63.67 184.803 63.866C184.953 64.062 185.167 64.16 185.447 64.16C185.69 64.16 185.97 64.09 186.287 63.95C186.605 63.8007 186.997 63.5067 187.463 63.068V62.186C186.829 62.0833 186.269 62.032 185.783 62.032C185.354 62.032 185.046 62.1207 184.859 62.298C184.673 62.4753 184.579 62.7413 184.579 63.096ZM191.806 61.122V61.948C191.806 62.6573 191.936 63.194 192.198 63.558C192.459 63.9127 192.874 64.09 193.444 64.09C194.004 64.09 194.606 63.9453 195.25 63.656L195.6 64.622C194.834 64.9673 194.092 65.14 193.374 65.14C192.478 65.14 191.796 64.8553 191.33 64.286C190.863 63.7167 190.63 62.9373 190.63 61.948V61.122C190.63 60.1327 190.863 59.3533 191.33 58.784C191.796 58.2147 192.478 57.93 193.374 57.93C193.71 57.93 194.055 57.9767 194.41 58.07C194.774 58.154 195.138 58.2753 195.502 58.434L195.152 59.414C194.844 59.2833 194.545 59.1807 194.256 59.106C193.976 59.0313 193.705 58.994 193.444 58.994C192.874 58.994 192.459 59.176 192.198 59.54C191.936 59.8947 191.806 60.422 191.806 61.122ZM202.281 64.594C201.861 64.7993 201.441 64.9393 201.021 65.014C200.601 65.098 200.214 65.14 199.859 65.14C198.861 65.14 198.114 64.8553 197.619 64.286C197.134 63.7167 196.891 62.9373 196.891 61.948V61.108C196.891 60.1467 197.134 59.3767 197.619 58.798C198.114 58.2193 198.809 57.93 199.705 57.93C200.181 57.93 200.615 58.028 201.007 58.224C201.409 58.4107 201.726 58.7 201.959 59.092C202.202 59.4747 202.323 59.9693 202.323 60.576C202.323 60.968 202.267 61.416 202.155 61.92H198.025V61.948C198.025 62.6573 198.17 63.194 198.459 63.558C198.758 63.922 199.234 64.104 199.887 64.104C200.186 64.104 200.513 64.0667 200.867 63.992C201.231 63.9173 201.586 63.8007 201.931 63.642L202.281 64.594ZM199.705 58.938C199.164 58.938 198.753 59.1153 198.473 59.47C198.203 59.8153 198.053 60.3053 198.025 60.94H201.161C201.189 60.772 201.203 60.6133 201.203 60.464C201.203 59.9413 201.054 59.5587 200.755 59.316C200.466 59.064 200.116 58.938 199.705 58.938Z" fill="white"/>
</svg>
